<svg width="72" height="72" viewBox="0 0 72 72" fill="none" xmlns="http://www.w3.org/2000/svg">
  <path
     d="m 67.567627,14.157981 -29.91415,53.49171 c -0.61763,1.10439 -2.2044,1.1109 -2.83131,0.0119 L 4.314887,14.163171 c -0.68297,-1.19767 0.34117,-2.64838 1.69836,-2.40579 l 21.05642,3.75383 c 0.0793,0.0142 0.34595,-5.2141 0.38684,-5.7999097 0.0332,-0.47532 0.48274,-0.59809 0.5281,-0.60676 1.71874,-0.36218 18.61788,-3.65008 22.41949,-4.40037 0.43761,-0.0864 0.85674,0.56268 0.77413,0.99721 -0.81609,2.82321 -2.74405,9.3597297 -2.69099,9.3500697 l 17.36974,-3.2864 c 1.35266,-0.24653 2.38162,1.19294 1.71065,2.39296 z"
     fill="none"
     stroke="white"
     stroke-width="2" />
  <path
     d="m 50.224387,4.7365213 -22.13736,4.33773 c -0.36385,0.0713 -0.63325,0.37963 -0.6552,0.74968 l -1.36175,22.9989697 c -0.032,0.54171 0.46546,0.96214 0.99416,0.8402 l 6.16336,-1.4224 c 0.57667,-0.13299 1.09773,0.37491 0.97921,0.95483 l -1.83112,8.9667 c -0.12323,0.60349 0.44335,1.11951 1.0327,0.94052 l 3.80678,-1.15659 c 0.59016,-0.17916 1.15723,0.33833 1.03237,0.94231 l -2.90999,14.08468 c -0.18209,0.88101 0.98978,1.36143 1.47849,0.60609 l 0.32646,-0.50448 18.03875,-35.99948 c 0.30207,-0.60276 -0.21883,-1.29006 -0.88085,-1.1623 l -6.34414,1.22441 c -0.59618,0.11494 -1.10343,-0.44026 -0.93516,-1.02355 l 4.14072,-14.3542997 c 0.16843,-0.58426 -0.3406,-1.13995 -0.93743,-1.02302 z"
     fill="none"
     stroke="white"
     stroke-width="2" />
</svg>
